<?xml version="1.0" encoding="UTF-8" standalone="no"?>
<!-- Created with Inkscape (http://www.inkscape.org/) -->

<svg
   width="210mm"
   height="297mm"
   viewBox="0 0 210 297"
   version="1.1"
   id="svg1"
   xmlns="http://www.w3.org/2000/svg"
   xmlns:svg="http://www.w3.org/2000/svg">
  <defs
     id="defs1" />
  <g
     id="layer1">
    <path
       d="m 57.668468,31.34506 h -9.877784 q -0.564445,-8.043339 -10.795007,-8.043339 -4.092225,0 -6.491116,1.76389 -2.39889,1.693335 -2.39889,4.586115 0,2.822224 2.046112,4.233336 2.046113,1.340556 7.690561,2.469446 l 8.043339,1.552223 q 7.126116,1.411112 10.371673,4.797781 3.245558,3.316113 3.245558,9.383895 0,7.831672 -5.573893,12.276675 -5.573892,4.374448 -15.522232,4.374448 -9.877785,0 -15.381122,-4.374448 -5.432781,-4.374447 -5.92667,-12.629453 h 10.301118 q 0.282222,4.162781 3.245557,6.350005 2.963336,2.187223 8.325562,2.187223 4.797781,0 7.549449,-1.834445 2.822224,-1.834446 2.822224,-5.080004 0,-3.104446 -2.187223,-4.797781 -2.187224,-1.693334 -7.478894,-2.681113 l -7.196672,-1.411112 q -7.831672,-1.481668 -11.147785,-4.65667 -3.316114,-3.175002 -3.316114,-9.172228 0,-7.54945 5.080004,-11.641675 5.150559,-4.16278 14.393343,-4.16278 2.681113,0 5.150559,0.352778 2.540002,0.352778 5.362226,1.481668 2.822224,1.058334 4.868336,2.822224 2.046113,1.693334 3.386669,4.797781 1.411112,3.033891 1.411112,7.05556 z M 78.552909,15.681716 V 58.2973 h 24.623901 v 8.819451 H 67.969568 V 15.681716 Z m 61.665561,41.063361 h -19.26168 l -3.45722,10.371674 h -10.79501 l 18.2739,-51.435035 h 11.71223 l 17.78001,51.435035 h -10.86556 z m -2.89278,-8.81945 -6.70278,-20.108347 -6.70278,20.108347 z m 64.69953,4.374447 q 0,2.540002 -0.84667,4.938892 -0.84667,2.398891 -2.75167,4.727226 -1.83445,2.328335 -5.57389,3.739447 -3.73945,1.411112 -8.89001,1.411112 H 160.82074 V 15.681716 h 22.93057 q 4.79779,0 8.25501,1.411112 3.52778,1.411112 5.22111,3.668892 1.76389,2.187223 2.54001,4.303891 0.77611,2.116668 0.77611,4.162781 0,3.316113 -1.62278,5.715004 -1.62278,2.39889 -5.43278,4.868336 8.53723,5.009448 8.53723,12.488342 z M 171.40408,24.501167 v 11.641674 h 11.50057 q 7.47889,0 7.47889,-5.785559 0,-5.856115 -7.47889,-5.856115 z m 0,20.461124 V 58.2973 h 12.62946 q 7.83167,0 7.83167,-6.632226 0,-6.702783 -7.83167,-6.702783 z"
       id="text1"
       style="font-weight:600;font-size:70.5556px;font-family:FreeSans;-inkscape-font-specification:'FreeSans, Semi-Bold';stroke-width:0.264583"
       aria-label="SLAB" />
  </g>
</svg>
